<svg height="477.60001pt" viewBox="0 0 477.60001 477.60001" width="477.60001pt" xmlns="http://www.w3.org/2000/svg"><path d="m477.601562 238.800781c0 131.886719-106.914062 238.800781-238.800781 238.800781s-238.800781-106.914062-238.800781-238.800781 106.914062-238.800781 238.800781-238.800781 238.800781 106.914062 238.800781 238.800781zm0 0" fill="#382b73"/><path d="m445.398438 238.800781c0 114.101563-92.496094 206.597657-206.597657 206.597657-114.101562 0-206.597656-92.496094-206.597656-206.597657 0-114.101562 92.496094-206.597656 206.597656-206.597656 114.101563 0 206.597657 92.496094 206.597657 206.597656zm0 0" fill="#473080"/><path d="m367.914062 361.953125c.011719-.054687.019532-.105469.027344-.160156.121094-.617188.191406-1.253907.191406-1.910157v-227.300781c0-3.152343-1.484374-5.933593-3.757812-7.777343-1.726562-1.398438-3.894531-2.269532-6.289062-2.269532h-25.84375c-4.066407 0-7.363282 3.296875-7.363282 7.363282v12.730468h-116.058594l18.539063-18.535156c.523437-.527344.917969-1.132812 1.179687-1.78125.789063-1.945312.394532-4.253906-1.179687-5.832031l-4.167969-4.167969-16.441406-16.4375c-2.101562-2.101562-5.507812-2.101562-7.609375 0l-46.753906 46.753906h-35.558594c-4.066406 0-7.363281 3.296875-7.363281 7.359375v35.566407l-3.175782 3.175781-34.277343 34.28125c-2.101563 2.097656-2.101563 5.507812 0 7.605469l20.605469 20.609374c.261718.261719.546874.492188.84375.6875.300781.199219.613281.363282.9375.492188 1.296874.527344 2.753906.527344 4.050781 0 .324219-.128906.636719-.292969.933593-.492188.300782-.195312.582032-.425781.84375-.6875l9.238282-9.238281v120.582031c0 4.066407 3.296875 7.363282 7.363281 7.363282h241.261719c4.121094 0 7.660156-2.492188 9.207031-6.046875.042969-.101563.074219-.203125.113281-.308594.210938-.523437.386719-1.0625.503906-1.625zm0 0" fill="#382b73"/><path d="m350.113281 355.929688h-233.285156c-4.066406 0-7.363281-3.296876-7.363281-7.363282v-212.578125c0-4.0625 3.296875-7.359375 7.363281-7.359375h233.285156zm0 0" fill="#fff"/><path d="m358.089844 335.839844h-33.207032v20.089844h33.207032c5.546875 0 10.042968-4.496094 10.042968-10.046876 0-5.546874-4.496093-10.042968-10.042968-10.042968zm0 0" fill="#fff"/><path d="m332.242188 108.535156h25.847656c5.546875 0 10.042968 4.5 10.042968 10.046875v227.300781c0-5.546874-4.496093-10.042968-10.042968-10.042968h-25.847656c-4.0625 0-7.359376-3.296875-7.359376-7.363282v-212.578124c0-4.066407 3.296876-7.363282 7.359376-7.363282zm0 0" fill="#ef5a9d"/><path d="m368.132812 345.875v.007812c0-.761718-.085937-1.5-.246093-2.214843-.007813-.039063-.015625-.074219-.023438-.113281-.109375-.464844-.253906-.917969-.425781-1.355469-.042969-.097657-.082031-.195313-.125-.292969-.050781-.128906-.109375-.253906-.171875-.375-.050781-.113281-.109375-.222656-.167969-.332031-.03125-.066407-.070312-.132813-.105468-.195313-.035157-.066406-.074219-.132812-.109376-.199218-.054687-.085938-.105468-.171876-.15625-.257813-.136718-.210937-.277343-.417969-.425781-.621094-.058593-.082031-.121093-.164062-.1875-.242187-.195312-.253906-.410156-.496094-.628906-.730469-.113281-.113281-.226563-.230469-.339844-.339844-1.804687-1.71875-4.246093-2.773437-6.929687-2.773437h-25.847656c-4.0625 0-7.359376-3.296875-7.359376-7.363282v8c0 4.066407 3.296876 7.363282 7.359376 7.363282h25.847656c4.125 0 7.660156 2.488281 9.207031 6.046875.53125-1.230469.835937-2.578125.835937-4 0-.007813 0-.007813 0-.011719zm0 0" fill="#e6e7e8"/><path d="m358.085938 108.535156h-16c5.546874 0 10.046874 4.5 10.046874 10.046875v217.257813h5.953126c5.546874 0 10.046874 4.496094 10.046874 10.042968v-227.300781c0-5.546875-4.496093-10.046875-10.046874-10.046875zm0 0" fill="#e43d91"/><path d="m217.417969 256.375h-12.65625v-20h12.65625zm0 0" fill="#e6e7e8"/><path d="m217.289062 236.144531v-12.65625h20v12.65625zm0 0" fill="#e6e7e8"/><path d="m217.417969 328.546875v-12.65625h20v12.65625zm0 0" fill="#e6e7e8"/><path d="m140.699219 156.011719v172.535156h76.71875v-72.171875h-12.65625v59.515625h-51.402344v-79.746094h64.058594v-12.65625h-64.058594v-54.820312h134.445313v54.820312h-50.515626v12.65625h50.515626v79.746094h-50.386719v12.65625h63.042969v-172.535156zm0 0" fill="#ef5a9d"/><path d="m153.359375 205.800781h56.058594c4.417969 0 8 3.582031 8 8v9.570313h-64.058594zm0 0" fill="#f7cb15"/><path d="m172.929688 213.980469h-19.570313v-45.3125h19.570313zm0 0" fill="#f7cb15"/><path d="m264.890625 207.457031h-22.191406c-2.347657 0-4.253907-1.90625-4.253907-4.253906v-15.949219c0-2.347656 1.90625-4.253906 4.253907-4.253906h22.191406c2.347656 0 4.253906 1.902344 4.253906 4.253906v15.949219c0 2.347656-1.90625 4.253906-4.253906 4.253906zm0 0" fill="#f7cb15"/><path d="m232.21875 201.164062h6.230469v-11.875h-6.230469c-1.175781 0-2.125.953126-2.125 2.125v7.621094c0 1.175782.949219 2.128906 2.125 2.128906zm0 0" fill="#e7ad27"/><path d="m233.226562 189.292969h-1.007812c-1.175781 0-2.125.949219-2.125 2.125v7.621093c0 1.171876.949219 2.125 2.125 2.125h1.007812zm0 0" fill="#f7cb15"/><path d="m275.375 189.292969h-6.230469v11.871093h6.230469c1.171875 0 2.125-.949218 2.125-2.125v-7.617187c0-1.179687-.953125-2.128906-2.125-2.128906zm0 0" fill="#e7ad27"/><path d="m274.367188 201.164062h1.007812c1.171875 0 2.125-.953124 2.125-2.125v-7.621093c0-1.175781-.953125-2.125-2.125-2.125h-1.007812zm0 0" fill="#f7cb15"/><path d="m247.859375 176.839844v6.230468h11.871094v-6.230468c0-1.175782-.949219-2.125-2.125-2.125h-7.621094c-1.171875-.003906-2.125.949218-2.125 2.125zm0 0" fill="#e7ad27"/><path d="m259.730469 177.847656v-1.007812c0-1.175782-.949219-2.125-2.125-2.125h-7.621094c-1.171875 0-2.125.949218-2.125 2.125v1.007812zm0 0" fill="#f7cb15"/><path d="m259.730469 213.617188v-6.230469h-11.871094v6.230469c0 1.171874.949219 2.125 2.125 2.125h7.621094c1.175781 0 2.125-.949219 2.125-2.125zm0 0" fill="#e7ad27"/><path d="m247.859375 212.609375v1.007813c0 1.171874.949219 2.125 2.125 2.125h7.621094c1.171875 0 2.125-.953126 2.125-2.125v-1.007813zm0 0" fill="#f7cb15"/><path d="m269.886719 312.40625h12.09375c1.375 0 2.488281-1.113281 2.488281-2.492188v-45.636718c0-1.375-1.113281-2.488282-2.488281-2.488282h-12.09375c-1.375 0-2.492188 1.113282-2.492188 2.488282v45.636718c0 1.375 1.117188 2.492188 2.492188 2.492188zm0 0" fill="#e7ad27"/><path d="m267.394531 285.617188h17.074219v2.957031h-17.074219zm0 0" fill="#f7cb15"/><path d="m281.980469 312.40625h-1.382813c-1.375 0-2.488281-1.113281-2.488281-2.492188v-45.636718c0-1.375 1.113281-2.488282 2.488281-2.488282h1.382813c1.375 0 2.488281 1.113282 2.488281 2.488282v45.636718c0 1.375-1.113281 2.492188-2.488281 2.492188zm0 0" fill="#f7cb15"/><path d="m260.21875 255.769531v-12.09375c0-1.375-1.113281-2.488281-2.488281-2.488281h-13.972657c-1.375 0-2.492187 1.113281-2.492187 2.488281v12.09375c0 1.375 1.113281 2.492188 2.492187 2.492188h13.972657c1.375-.003907 2.488281-1.117188 2.488281-2.492188zm0 0" fill="#e7ad27"/><path d="m260.21875 243.675781v1.382813c0 1.375-1.113281 2.488281-2.488281 2.488281h-13.972657c-1.375 0-2.492187-1.113281-2.492187-2.488281v-1.382813c0-1.375 1.113281-2.488281 2.492187-2.488281h13.972657c1.375 0 2.488281 1.113281 2.488281 2.488281zm0 0" fill="#f7cb15"/><path d="m197.265625 279.640625v33.546875c0 1.605469-1.300781 2.910156-2.90625 2.910156h-30.597656c-1.609375 0-2.910157-1.304687-2.910157-2.910156v-33.546875c0-1.605469 1.300782-2.910156 2.910157-2.910156h30.597656c1.605469 0 2.90625 1.304687 2.90625 2.910156zm0 0" fill="#e7ad27"/><g fill="#f7cb15"><path d="m197.265625 279.753906v20.089844h-36.414063v-20.089844c0-1.605468 1.300782-2.90625 2.910157-2.90625h30.597656c1.605469 0 2.90625 1.300782 2.90625 2.90625zm0 0"/><path d="m177.515625 306.359375v4.964844c0 1.105469-.894531 2-2 2h-9.792969c-1.105468 0-2-.894531-2-2v-4.964844c0-1.105469.894532-2 2-2h9.792969c1.105469 0 2 .894531 2 2zm0 0"/><path d="m194.425781 306.359375v4.964844c0 1.105469-.894531 2-2 2h-9.792969c-1.105468 0-2-.894531-2-2v-4.964844c0-1.105469.894532-2 2-2h9.792969c1.105469 0 2 .894531 2 2zm0 0"/><path d="m176.597656 256.375h-23.242187v-20.230469h31.242187v12.230469c0 4.417969-3.582031 8-8 8zm0 0"/><path d="m284.585938 249.722656c0 4.777344-3.875 8.652344-8.652344 8.652344-4.78125 0-8.65625-3.875-8.65625-8.652344 0-4.78125 3.875-8.65625 8.65625-8.65625 4.777344 0 8.652344 3.875 8.652344 8.65625zm0 0"/><path d="m243.269531 304.785156h11.875c1.101563 0 2-.894531 2-2v-32.234375c0-1.105469-.898437-2-2-2h-11.875c-1.105469 0-2 .894531-2 2v32.234375c0 1.105469.890625 2 2 2zm0 0"/></g><path d="m178.785156 168.667969h-5.855468v5.855469zm0 0" fill="#d1d3d4"/><path d="m172.929688 168.667969h-19.570313v25.425781l19.570313-19.570312zm0 0" fill="#e7ad27"/><path d="m162.390625 128.628906-4.265625 4.261719-45.097656 45.101563-3.5625 3.5625v56.429687l31.234375-31.230469v-50.742187h50.742187l27.382813-27.382813zm0 0" fill="#d1d3d4"/><path d="m153.359375 194.09375v-38.082031h-12.660156v50.742187zm0 0" fill="#a72973"/><path d="m140.699219 156.011719v12.65625h38.085937l12.65625-12.65625zm0 0" fill="#a72973"/><path d="m92.621094 237.222656-20.609375-20.605468c-2.101563-2.101563-2.101563-5.507813 0-7.609376l127.132812-127.132812c2.097657-2.097656 5.507813-2.097656 7.609375 0l20.605469 20.609375c2.101563 2.101563 2.101563 5.507813 0 7.609375l-127.132813 127.132812c-2.101562 2.097657-5.507812 2.097657-7.605468-.003906zm0 0" fill="#1caee4"/><path d="m227.359375 102.484375-6.25-6.253906c2.097656 2.105469 2.097656 5.507812 0 7.609375l-127.132813 127.132812c-2.101562 2.097656-5.507812 2.097656-7.609374 0l6.25 6.25c2.101562 2.101563 5.507812 2.101563 7.609374 0l127.132813-127.128906c2.101563-2.101562 2.101563-5.507812 0-7.609375zm0 0" fill="#009add"/><path d="m221.496094 96.617188 5.230468 5.230468-134.742187 134.738282-5.230469-5.230469zm0 0" fill="#27c1e6"/><path d="m184.042969 96.972656 6.738281-6.734375 7.824219 7.824219c1.859375 1.863281 1.859375 4.878906 0 6.738281s-4.875 1.859375-6.734375 0zm0 0" fill="#27c1e6"/><path d="m158.125 122.890625 6.738281-6.738281 7.828125 7.828125c1.859375 1.863281 1.859375 4.878906 0 6.738281-1.863281 1.859375-4.878906 1.859375-6.738281 0zm0 0" fill="#27c1e6"/><path d="m132.210938 148.808594 6.738281-6.738282 7.824219 7.828126c1.859374 1.863281 1.859374 4.878906 0 6.738281-1.859376 1.859375-4.875 1.859375-6.734376 0zm0 0" fill="#27c1e6"/><path d="m106.292969 174.726562 6.738281-6.738281 7.824219 7.828125c1.859375 1.859375 1.859375 4.875 0 6.738282-1.859375 1.859374-4.875 1.859374-6.734375 0zm0 0" fill="#27c1e6"/><path d="m80.375 200.644531 6.738281-6.734375 7.824219 7.824219c1.859375 1.863281 1.859375 4.878906 0 6.738281s-4.875 1.859375-6.734375 0zm0 0" fill="#27c1e6"/></svg>