<svg height="477.60001pt" viewBox="0 0 477.60001 477.60001" width="477.60001pt" xmlns="http://www.w3.org/2000/svg"><path d="m477.601562 238.800781c0 131.886719-106.914062 238.800781-238.800781 238.800781s-238.800781-106.914062-238.800781-238.800781 106.914062-238.800781 238.800781-238.800781 238.800781 106.914062 238.800781 238.800781zm0 0" fill="#382b73"/><path d="m445.398438 238.800781c0 114.101563-92.496094 206.597657-206.597657 206.597657-114.101562 0-206.597656-92.496094-206.597656-206.597657 0-114.101562 92.496094-206.597656 206.597656-206.597656 114.101563 0 206.597657 92.496094 206.597657 206.597656zm0 0" fill="#473080"/><path d="m216.726562 280.429688c-.046874-1.03125-.121093-2.054688-.210937-3.074219 0 0 0 0 0-.003907-2.5625-28.074218-21.8125-51.316406-47.753906-59.730468h.160156v-50.433594h1.960937c2.046876 0 3.902344-.828125 5.242188-2.171875.671875-.671875 1.214844-1.46875 1.589844-2.359375.378906-.886719.582031-1.859375.582031-2.882812 0-.453126-.054687-.886719-.132813-1.316407-.019531-.117187-.042968-.238281-.070312-.355469-.089844-.378906-.199219-.746093-.339844-1.097656-.042968-.105468-.09375-.207031-.140625-.308594-.097656-.214843-.199219-.429687-.3125-.632812-.003906.007812-.011719.015625-.015625.027344-1.28125-2.222656-3.652344-3.734375-6.402344-3.734375h-47.152343c-2.746094 0-5.117188 1.511719-6.398438 3.734375-.003906-.011719-.011719-.019532-.015625-.027344-.117187.207031-.214844.417969-.316406.632812-.046875.101563-.097656.199219-.136719.308594-.144531.351563-.253906.71875-.34375 1.097656-.027343.117188-.050781.238282-.074219.355469-.078124.429688-.132812.863281-.132812 1.316407 0 1.023437.210938 2 .582031 2.882812.378907.890625.917969 1.6875 1.589844 2.359375 1.34375 1.34375 3.199219 2.171875 5.246094 2.171875h1.960937v50.4375h.160156c-25.941406 8.410156-45.195312 31.652344-47.753906 59.730469-.09375 1.019531-.164062 2.042969-.214844 3.078125 0 .039062-.003906.078125-.007812.117187-.046875 1.058594-.078125 2.121094-.078125 3.1875 0 36.75 28.523437 66.816407 64.636719 69.320313.703125.046875 1.414062.089844 2.125.121094.910156.039062 1.824218.066406 2.746094.066406 1.644531 0 3.265624-.074219 4.882812-.1875.359375-.027344.71875-.050782 1.082031-.082032 1.617188-.136718 3.222657-.316406 4.808594-.5625.015625-.003906.027344-.007812.042969-.007812 1.609375-.253906 3.195312-.574219 4.765625-.933594.238281-.054687.476562-.105468.710937-.164062 30.523438-7.335938 53.210938-34.792969 53.210938-67.566406 0-1.070313-.027344-2.132813-.078125-3.1875 0-.042969 0-.085938-.003907-.125zm0 0" fill="#382b73"/><path d="m386.839844 344.449219c.628906-.703125 1.222656-1.425781 1.773437-2.183594.019531-.03125.039063-.058594.0625-.085937 1.160157-1.609376 2.136719-3.339844 2.921875-5.164063.003906-.011719.011719-.027344.019532-.042969.386718-.90625.722656-1.835937 1.011718-2.777344.007813-.035156.019532-.066406.027344-.097656 1.453125-4.824218 1.5625-10.089844.007812-15.226562-.636718-2.101563-1.535156-4.179688-2.75-6.191406l-55.5-91.953126.117188-37.253906c.015625.007813.03125.011719.050781.015625v-.054687h-.050781l.011719-3.941406h.039062v-11.597657h2.054688c2.984375 0 5.542969-1.703125 6.84375-4.171875.023437-.035156.042969-.074218.0625-.109375.160156-.320312.300781-.652343.417969-.996093.066406-.1875.125-.375.175781-.566407.066406-.257812.113281-.515625.152343-.777343.019532-.140626.070313-.269532.082032-.410157.015625-.15625.003906-.304687.007812-.460937.003906-.09375.027344-.179688.027344-.277344 0-.070312-.019531-.136719-.023438-.210938-.007812-.367187-.046874-.726562-.105468-1.078124-.019532-.117188-.027344-.234376-.054688-.351563-.09375-.433594-.226562-.859375-.390625-1.265625-.066406-.160156-.152343-.3125-.226562-.46875-.082031-.171875-.152344-.347656-.246094-.507812-.007813.007812-.011719.015624-.015625.023437-1.34375-2.324219-3.828125-3.910156-6.707031-3.910156h-49.390625c-2.878906 0-5.363282 1.585937-6.707032 3.910156-.003906-.007813-.011718-.015625-.015624-.023437-.09375.160156-.164063.339843-.246094.507812-.074219.15625-.160156.308594-.226563.46875-.167969.40625-.296875.828125-.394531 1.265625-.023438.117187-.03125.234375-.050781.351563-.058594.355468-.097657.710937-.109375 1.078124 0 .074219-.019532.140626-.019532.210938 0 .09375.023438.183594.027344.277344.007813.15625-.007812.304687.007813.460937.011719.140625.058593.269531.082031.410157.039062.261718.085938.523437.152344.777343.050781.191407.109375.378907.175781.566407.117187.34375.257813.675781.417969.996093.019531.039063.039062.074219.058594.109375 1.304687 2.46875 3.863281 4.171875 6.847656 4.171875h2.054687v52.832031l-55.398437 91.972657c-4.175782 6.9375-4.773438 14.613281-2.726563 21.40625.007813.027343.015625.054687.023438.085937.289062.945313.625 1.878906 1.015625 2.785156.003906.011719.011718.019532.015625.035157.785156 1.824219 1.765625 3.554687 2.925781 5.167969.023438.027343.042969.058593.0625.085937.550781.761719 1.144531 1.488281 1.773438 2.1875.074218.078125.144531.160156.21875.238281.617187.671875 1.269531 1.3125 1.953124 1.921875.089844.078125.179688.152344.269532.230469.703125.605469 1.433594 1.183594 2.203125 1.714844.054687.039062.109375.070312.164062.105468.769531.527344 1.570313 1.015626 2.402344 1.460938.054687.027344.105469.0625.160156.089844.824219.433594 1.679688.816406 2.558594 1.160156.136719.054688.273437.113281.414063.164062.855468.324219 1.738281.597657 2.640624.832032.164063.042968.328126.082031.496094.121094.917969.222656 1.855469.398437 2.820313.523437.136719.019531.273437.027344.410156.042969 1.015625.113281 2.050781.1875 3.109375.1875h110.214844c1.0625 0 2.09375-.074219 3.109375-.1875.140625-.015625.277343-.027344.414062-.042969.960938-.121094 1.898438-.300781 2.816407-.519531.164062-.039063.332031-.082032.496093-.121094.90625-.234375 1.785157-.511719 2.640625-.832031.140625-.054688.277344-.109375.417969-.167969.875-.34375 1.730469-.726562 2.554687-1.160156.054688-.027344.105469-.0625.160157-.089844.828125-.441406 1.628906-.929688 2.398437-1.453125.054688-.039063.113282-.074219.167969-.113281.765625-.53125 1.496094-1.105469 2.195313-1.707032.09375-.082031.1875-.15625.277343-.238281.683594-.605469 1.335938-1.246093 1.953125-1.914062.066406-.085938.136719-.167969.210938-.25zm0 0" fill="#382b73"/><path d="m168.761719 203.625h.160156v-50.433594h-43.230469v50.433594h.160156c-27.882812 9.039062-48.050781 35.214844-48.050781 66.113281 0 38.386719 31.117188 69.503907 69.503907 69.503907 38.390624 0 69.507812-31.117188 69.507812-69.503907 0-30.898437-20.167969-57.074219-48.050781-66.113281zm0 0" fill="#e6e7e8"/><path d="m170.878906 138.355469h-47.148437c-4.09375 0-7.414063 3.320312-7.414063 7.417969 0 4.09375 3.320313 7.414062 7.414063 7.414062h47.148437c4.097656 0 7.417969-3.320312 7.417969-7.414062 0-4.097657-3.320313-7.417969-7.417969-7.417969zm0 0" fill="#fff"/><path d="m170.878906 145.773438h-47.148437c-2.742188 0-5.132813-1.496094-6.414063-3.710938-.632812 1.09375-1 2.359375-1 3.710938 0 4.09375 3.320313 7.417968 7.414063 7.417968h47.148437c4.097656 0 7.417969-3.320312 7.417969-7.417968 0-1.351563-.367187-2.617188-1-3.710938-1.28125 2.214844-3.671875 3.710938-6.417969 3.710938zm0 0" fill="#e6e7e8"/><path d="m125.691406 153.191406h43.230469v11.070313h-43.230469zm0 0" fill="#d1d3d4"/><path d="m95.433594 246.882812c-3.574219 8.09375-5.320313 17.171876-4.683594 26.730469 1.925781 28.757813 25.679688 51.75 54.484375 52.773438 32.25 1.148437 58.757813-24.652344 58.757813-56.648438 0-8.125-1.71875-15.84375-4.800782-22.828125-.8125-1.84375-2.648437-3.023437-4.660156-3.023437h-94.453125c-2.003906 0-3.835937 1.164062-4.644531 2.996093zm0 0" fill="#f7cb15"/><path d="m137.238281 243.886719c0 5.265625-4.269531 9.535156-9.535156 9.535156s-9.535156-4.269531-9.535156-9.535156 4.269531-9.535157 9.535156-9.535157 9.535156 4.269532 9.535156 9.535157zm0 0" fill="#f7cb15"/><path d="m134.507812 239.027344c0 2.152344-1.746093 3.898437-3.898437 3.898437-2.15625 0-3.902344-1.746093-3.902344-3.898437 0-2.15625 1.746094-3.902344 3.902344-3.902344 2.152344 0 3.898437 1.746094 3.898437 3.902344zm0 0" fill="#fff335"/><path d="m108.328125 246.882812c-2.6875 8.09375-4 17.171876-3.519531 26.730469 1.449218 28.757813 19.296875 51.75 40.941406 52.773438 24.230469 1.148437 44.148438-24.652344 44.148438-56.648438 0-8.125-1.289063-15.84375-3.605469-22.828125-.609375-1.84375-1.988281-3.023437-3.503907-3.023437h-70.96875c-1.503906 0-2.882812 1.164062-3.492187 2.996093zm0 0" fill="#fede3a"/><path d="m145.234375 308.589844c-27.082031-.964844-49.691406-21.34375-53.902344-47.679688-.644531 4.109375-.871093 8.351563-.582031 12.703125 1.925781 28.761719 25.679688 51.75 54.484375 52.773438 32.25 1.148437 58.757813-24.652344 58.757813-56.648438 0-3.023437-.238282-5.992187-.699219-8.886719-4.378907 27.726563-28.863281 48.773438-58.058594 47.738282zm0 0" fill="#e7ad27"/><path d="m186.039062 293.308594c-10.597656 9.929687-25.007812 15.839844-40.804687 15.28125-14.09375-.503906-26.972656-6.273438-36.679687-15.394532 6.546874 18.992188 20.773437 32.414063 37.195312 33.191407.515625.023437 1.023438.019531 1.53125.019531.253906 0 .511719.011719.765625.007812 16.886719-.382812 31.367187-13.851562 37.992187-33.105468zm0 0" fill="#f7cb15"/><path d="m95.433594 252.605469c.808594-1.832031 2.644531-2.996094 4.644531-2.996094h94.453125c2.011719 0 3.847656 1.179687 4.660156 3.019531 2.71875 6.171875 4.375 12.914063 4.726563 20.003906.046875-.957031.074219-1.921874.074219-2.894531 0-8.125-1.71875-15.84375-4.800782-22.828125-.8125-1.84375-2.648437-3.023437-4.660156-3.023437h-94.453125c-2 0-3.835937 1.167969-4.644531 3-3.421875 7.746093-5.144532 16.402343-4.726563 25.511719.375-7.015626 2.027344-13.683594 4.726563-19.792969zm0 0" fill="#fff335"/><g fill="#d1d3d4"><path d="m168.761719 168.023438c.050781.015624.105469.035156.160156.054687v-.054687zm0 0"/><path d="m125.851562 168.023438h-.160156v.054687c.054688-.019531.105469-.039063.160156-.054687zm0 0"/><path d="m147.304688 326.53125c-36.25 0-66.003907-27.757812-69.203126-63.175781-.195312 2.101562-.300781 4.230469-.300781 6.382812 0 38.390625 31.117188 69.507813 69.503907 69.507813 38.390624 0 69.507812-31.117188 69.507812-69.507813 0-2.152343-.109375-4.28125-.300781-6.382812-3.199219 35.417969-32.953125 63.175781-69.207031 63.175781zm0 0"/></g><path d="m145.210938 205.574219c10.253906 6.957031 18.488281 20.839843 22.777343 38.3125h21.265625c-4.4375-18.070313-13.097656-32.300781-23.847656-39.003907-.773438-.484374-1.265625-1.308593-1.265625-2.222656v-49.46875h-21.167969l-.082031 48.054688c-.007813 1.742187.875 3.351562 2.320313 4.328125zm0 0" fill="#fff"/><path d="m156.601562 325.65625c-4.113281 5.96875-8.914062 10.570312-14.167968 13.398438 1.613281.113281 3.230468.1875 4.871094.1875 7.335937 0 14.40625-1.140626 21.046874-3.25 6.761719-5.28125 12.546876-13.636719 16.757813-24.03125-7.84375 7.03125-17.65625 11.90625-28.507813 13.695312zm0 0" fill="#fff"/><path d="m185.109375 311.960938c4.648437-11.472657 7.378906-25.425782 7.378906-40.488282 0-9.789062-1.15625-19.109375-3.238281-27.585937h-21.261719c2.082031 8.476562 3.242188 17.796875 3.242188 27.585937 0 21.75-5.6875 41.203125-14.628907 54.183594 10.851563-1.789062 20.664063-6.664062 28.507813-13.695312zm0 0" fill="#fff335"/><path d="m154.296875 226.351562c0 3.714844-3.011719 6.726563-6.726563 6.726563-3.714843 0-6.726562-3.011719-6.726562-6.726563 0-3.71875 3.011719-6.730468 6.726562-6.730468 3.714844 0 6.726563 3.011718 6.726563 6.730468zm0 0" fill="#f7cb15"/><path d="m153.132812 223.949219c0 2.046875-1.65625 3.703125-3.703124 3.703125-2.046876 0-3.703126-1.65625-3.703126-3.703125s1.65625-3.703125 3.703126-3.703125c2.042968 0 3.703124 1.65625 3.703124 3.703125zm0 0" fill="#fff335"/><path d="m334.410156 206.726562.167969-52.832031h-45.285156v52.832031l-55.394531 91.972657c-10.738282 17.828125 2.101562 40.542969 22.910156 40.542969h110.207031c20.820313 0 33.65625-22.738282 22.894531-40.5625zm0 0" fill="#e6e7e8"/><path d="m367.015625 324.035156h-110.207031c-12.71875 0-22.449219-8.492187-25.648438-19.164062-4.992187 16.484375 7.183594 34.375 25.648438 34.375h110.207031c18.464844 0 30.636719-17.890625 25.644531-34.375-3.199218 10.667968-12.925781 19.164062-25.644531 19.164062zm0 0" fill="#d1d3d4"/><path d="m334.460938 191.597656.117187-37.703125h-.046875l-.121094 37.621094zm0 0" fill="#d1d3d4"/><path d="m380.027344 298.679688-55.5-91.953126.167968-52.832031h-21.28125l-.167968 52.832031 55.5 91.953126c10.761718 17.824218-2.074219 40.5625-22.894532 40.5625h21.277344c20.824219 0 33.660156-22.738282 22.898438-40.5625zm0 0" fill="#fff"/><path d="m336.632812 138.355469h-49.394531c-4.289062 0-7.769531 3.480469-7.769531 7.769531s3.480469 7.769531 7.769531 7.769531h49.394531c4.289063 0 7.769532-3.476562 7.769532-7.769531 0-4.289062-3.476563-7.769531-7.769532-7.769531zm0 0" fill="#fff"/><path d="m336.632812 146.125h-49.394531c-2.871093 0-5.375-1.566406-6.71875-3.886719-.777343 1.339844-1.171875 2.925781-1.015625 4.621094.378906 4.054687 4.023438 7.035156 8.09375 7.035156h48.675782c4.070312 0 7.710937-2.980469 8.09375-7.035156.15625-1.695313-.238282-3.28125-1.015626-4.621094-1.339843 2.320313-3.84375 3.886719-6.71875 3.886719zm0 0" fill="#e6e7e8"/><path d="m289.292969 153.894531h45.285156v11.597657h-45.285156zm0 0" fill="#d1d3d4"/><path d="m334.410156 169.433594c.054688.019531.113282.039062.167969.058594v-.058594zm0 0" fill="#d1d3d4"/><path d="m289.460938 169.433594h-.167969v.058594c.058593-.019532.113281-.039063.167969-.058594zm0 0" fill="#d1d3d4"/><path d="m338.710938 248.902344h-53.667969c-1.386719 0-2.667969.726562-3.386719 1.914062l-30.40625 50.488282c-6.035156 10.019531 1.179688 22.789062 12.875 22.789062h95.570312c11.699219 0 18.914063-12.78125 12.867188-22.800781l-30.464844-50.476563c-.714844-1.1875-2-1.914062-3.386718-1.914062zm0 0" fill="#009add"/><path d="m359.695312 309.492188h-95.570312c-5.878906 0-10.621094-3.226563-13.121094-7.707032-5.53125 9.941406 1.609375 22.308594 13.121094 22.308594h95.570312c11.511719 0 18.652344-12.367188 13.121094-22.308594-2.5 4.480469-7.242187 7.707032-13.121094 7.707032zm0 0" fill="#136da0"/><path d="m342.097656 250.8125c-.71875-1.183594-2-1.910156-3.386718-1.910156h-10.007813l30.042969 49.777344c5.03125 8.332031 4.898437 17.738281 1.210937 25.394531 11.539063-.195313 18.601563-12.839844 12.601563-22.78125zm0 0" fill="#27c1e6"/><path d="m312.742188 248.902344c0 5.519531-4.46875 9.992187-9.988282 9.992187-5.519531 0-9.988281-4.472656-9.988281-9.992187 0-5.515625 4.46875-9.988282 9.988281-9.988282 5.519532 0 9.988282 4.472657 9.988282 9.988282zm0 0" fill="#009add"/><path d="m309.882812 243.8125c0 2.257812-1.832031 4.085938-4.085937 4.085938-2.257813 0-4.085937-1.828126-4.085937-4.085938 0-2.253906 1.828124-4.085938 4.085937-4.085938 2.253906 0 4.085937 1.832032 4.085937 4.085938zm0 0" fill="#27c1e6"/><path d="m314.320312 231.359375c0 2.453125-1.984374 4.441406-4.441406 4.441406-2.453125 0-4.441406-1.988281-4.441406-4.441406s1.988281-4.445313 4.441406-4.445313c2.457032.003907 4.441406 1.992188 4.441406 4.445313zm0 0" fill="#009add"/><path d="m312.835938 228.046875c.957031.957031.957031 2.503906 0 3.457031-.953126.957032-2.503907.957032-3.457032 0-.957031-.957031-.957031-2.503906 0-3.457031.957032-.957031 2.503906-.957031 3.457032 0zm0 0" fill="#27c1e6"/><path d="m327.464844 248.902344h-31.144532c-.800781 0-1.546874.726562-1.960937 1.914062l-17.648437 50.488282c-3.5 10.019531.6875 22.789062 7.472656 22.789062h55.457031c6.789063 0 10.976563-12.78125 7.46875-22.800781l-17.679687-50.476563c-.417969-1.1875-1.160157-1.914062-1.964844-1.914062zm0 0" fill="#1caee4"/><path d="m348.359375 309.492188h-72.898437c.140624 7.660156 3.71875 14.601562 8.722656 14.601562h55.453125c5.003906 0 8.582031-6.941406 8.722656-14.601562zm0 0" fill="#009add"/><path d="m251.25 307.878906 30.40625-50.488281c.714844-1.1875 2-1.914063 3.386719-1.914063h53.667969c1.386718 0 2.667968.726563 3.386718 1.910157l30.464844 50.480469c.875 1.445312 1.441406 2.949218 1.789062 4.46875.808594-3.566407.363282-7.476563-1.789062-11.042969l-30.464844-50.480469c-.71875-1.183594-2-1.910156-3.386718-1.910156h-53.667969c-1.386719 0-2.667969.726562-3.386719 1.914062l-30.40625 50.488282c-2.144531 3.566406-2.59375 7.46875-1.78125 11.03125.347656-1.511719.914062-3.015626 1.78125-4.457032zm0 0" fill="#27c1e6"/></svg>